<svg width="156" height="42" viewBox="0 0 156 42" fill="none" xmlns="http://www.w3.org/2000/svg">
<path d="M31.9978 23.1415H7.93921V29.5365H31.9978V23.1415Z" fill="#7371FC"/>
<path d="M7.93921 11.7535H31.9978V11.1809C31.9978 7.76811 29.232 5.00226 25.8192 5.00226H7.93921V11.7535Z" fill="#7371FC"/>
<path d="M31.9978 14.233H7.93921V20.6619H31.9978V14.233Z" fill="#7371FC"/>
<path d="M5.45957 32.0161V23.1415H0V30.8191C0 34.2319 2.76585 36.9978 6.17864 36.9978H25.8191C28.8216 36.9978 31.3238 34.8541 31.8828 32.0138H5.45957V32.0161Z" fill="#7371FC"/>
<path d="M5.45957 11.7535V5.04285C2.38715 5.399 0 8.00932 0 11.1787V11.7512H5.45957V11.7535Z" fill="#7371FC"/>
<path d="M5.45957 14.233H0V20.6619H5.45957V14.233Z" fill="#7371FC"/>
<path d="M49.5773 30.028V15.076H40.3933V10.428H65.5373V15.076H56.3253V30.028H49.5773ZM86.9838 26.22H87.7678V30.168H82.8678C81.5238 30.168 80.7678 29.496 80.5438 28.18C80.0958 28.712 79.3398 29.244 78.2478 29.72C77.1558 30.196 75.6718 30.42 73.7958 30.42H73.4598C71.1638 30.42 69.4558 29.972 68.3358 29.076C67.2158 28.18 66.6838 27.06 66.6838 25.688V25.492C66.6838 24.176 67.1318 23.168 68.0838 22.468C69.0358 21.796 70.6038 21.348 72.7878 21.152L79.4798 20.536C80.0678 20.452 80.3758 20.2 80.3758 19.78C80.3758 19.528 80.3198 19.36 80.2078 19.192C80.0958 19.052 79.7318 18.912 79.1438 18.8C78.5558 18.66 77.6878 18.576 76.5958 18.576L66.6838 18.604V15.244H77.2118C78.8358 15.244 80.2357 15.328 81.3838 15.524C82.5598 15.72 83.4278 15.972 84.0438 16.252C84.6598 16.56 85.1358 16.924 85.4718 17.372C85.8358 17.848 86.0318 18.24 86.1158 18.604C86.1718 18.968 86.2278 19.416 86.2278 19.92V25.492C86.2278 25.968 86.4798 26.22 86.9838 26.22ZM80.3758 23.7V23.252L74.6078 24.148C73.7958 24.26 73.2357 24.428 72.8998 24.624C72.5918 24.82 72.4238 25.1 72.4238 25.492V25.52C72.4238 25.968 72.6198 26.36 73.0397 26.696C73.4598 27.004 74.1318 27.172 75.0838 27.172C76.6238 27.172 77.9118 26.808 78.8918 26.108C79.8998 25.408 80.3758 24.624 80.3758 23.7ZM99.0157 30.336C92.4077 30.336 89.1317 28.684 89.1317 25.324V25.156H95.7117C95.7117 26.444 97.0277 27.088 99.6597 27.088H99.7157C100.808 27.088 101.676 27.004 102.292 26.864C102.908 26.724 103.3 26.584 103.468 26.416C103.608 26.22 103.692 26.024 103.692 25.744V25.688C103.692 25.296 103.468 24.988 103.048 24.792C102.6 24.596 101.704 24.484 100.304 24.456L97.5597 24.4C95.9637 24.372 94.5917 24.232 93.4437 23.952C92.3237 23.7 91.4557 23.336 90.8677 22.916C90.3077 22.468 89.8877 22.02 89.6357 21.544C89.3837 21.068 89.2717 20.564 89.2717 20.004V19.836C89.2717 19.36 89.3277 18.912 89.4397 18.52C89.5797 18.156 89.8317 17.736 90.2517 17.344C90.6717 16.952 91.2037 16.616 91.9037 16.336C92.5757 16.084 93.5277 15.86 94.7317 15.692C95.9357 15.524 97.3637 15.44 98.9877 15.44H100.136C106.576 15.44 109.796 16.896 109.796 19.864V20.06H103.272C103.244 19.864 103.188 19.724 103.104 19.584C103.048 19.472 102.88 19.304 102.656 19.136C102.432 18.968 102.04 18.856 101.508 18.744C100.948 18.66 100.276 18.604 99.4917 18.604H99.4637C98.0077 18.604 97.0277 18.688 96.5237 18.856C96.0477 18.996 95.7957 19.276 95.7957 19.668V19.696C95.7957 20.06 96.0197 20.34 96.4677 20.508C96.9437 20.704 97.7837 20.816 99.0157 20.844L101.76 20.9C104.084 20.928 105.876 21.124 107.136 21.488C108.424 21.852 109.292 22.328 109.712 22.916C110.132 23.504 110.356 24.316 110.356 25.324V25.492C110.356 26.192 110.216 26.836 109.936 27.368C109.656 27.9 109.18 28.404 108.48 28.88C107.78 29.356 106.744 29.72 105.344 29.972C103.944 30.224 102.236 30.336 100.192 30.336H99.0157ZM112.58 29.944V10.4H118.936V21.46L125.18 15.804H132.264L124.984 22.188L133.132 29.944H125.656L118.936 23.448V29.944H112.58ZM149.462 16.224H155.734L147.838 32.24C147.082 33.724 146.298 34.816 145.486 35.488C144.674 36.16 143.582 36.468 142.294 36.468H133.194V32.016H140.362C140.838 32.016 141.09 31.848 141.09 31.54C141.09 31.372 140.838 30.84 140.39 29.944L133.194 16.224H139.914L144.758 26.388L149.462 16.224Z" fill="#22183B"/>
</svg>
